<?xml version="1.0" standalone="no"?>
<!DOCTYPE svg PUBLIC "-//W3C//DTD SVG 20010904//EN"
 "http://www.w3.org/TR/2001/REC-SVG-20010904/DTD/svg10.dtd">
<svg version="1.0" xmlns="http://www.w3.org/2000/svg"
 width="310.000000pt" height="310.000000pt" viewBox="0 0 310.000000 310.000000"
 preserveAspectRatio="xMidYMid meet">
<metadata>
Created by potrace 1.11, written by Peter Selinger 2001-2013
</metadata>
<g transform="translate(0.000000,310.000000) scale(0.100000,-0.100000)"
fill="#000000" stroke="none">
<path d="M2348 2744 c-20 -8 -39 -22 -42 -30 -3 -8 4 -43 16 -79 25 -73 28
-48 -48 -361 -75 -309 -148 -474 -211 -474 -47 0 -153 171 -224 361 -46 125
-49 134 -59 262 -11 137 -26 179 -71 202 -36 19 -129 22 -169 7 -52 -20 -55
-34 -26 -124 73 -236 91 -463 62 -808 -13 -142 -13 -168 0 -192 17 -32 53 -45
83 -29 25 14 35 49 62 231 34 226 42 265 58 265 7 0 44 -58 81 -129 106 -202
169 -276 233 -276 59 0 130 111 227 354 62 157 79 191 90 180 5 -5 16 -61 25
-124 13 -88 16 -146 10 -243 -5 -106 -4 -132 9 -151 36 -56 97 -28 115 53 5
26 17 119 25 207 33 346 37 426 27 564 -16 208 -30 278 -61 313 -24 27 -33 30
-101 33 -52 3 -85 0 -111 -12z"/>
<path d="M520 2626 c-64 -17 -115 -51 -130 -85 -10 -26 -7 -44 28 -153 82
-251 125 -497 144 -831 15 -259 0 -611 -36 -852 -46 -304 -44 -338 21 -395 45
-40 91 -40 136 0 39 34 247 108 550 196 299 86 511 130 705 144 179 13 232 41
232 123 0 46 -29 80 -92 107 -50 22 -61 23 -218 17 -286 -11 -552 -64 -885
-177 -130 -43 -162 -48 -172 -25 -7 19 10 155 49 390 93 567 103 671 95 960
-9 326 -39 477 -106 538 -60 54 -207 74 -321 43z"/>
</g>
</svg>
